<svg xmlns="http://www.w3.org/2000/svg" width="1400" height="900" viewBox="0 0 1400 900" fill="none">
  <defs>
    <linearGradient id="g0" x1="180" y1="140" x2="1220" y2="760" gradientUnits="userSpaceOnUse">
      <stop stop-color="#0B1220"/>
      <stop offset="0.55" stop-color="#0F172A"/>
      <stop offset="1" stop-color="#0A0F1C"/>
    </linearGradient>
    <linearGradient id="g1" x1="220" y1="200" x2="1100" y2="720" gradientUnits="userSpaceOnUse">
      <stop stop-color="#C8FA64" stop-opacity="0.20"/>
      <stop offset="0.45" stop-color="#22C55E" stop-opacity="0.05"/>
      <stop offset="1" stop-color="#0EA5E9" stop-opacity="0.12"/>
    </linearGradient>
    <filter id="shadow" x="-20%" y="-20%" width="140%" height="140%" color-interpolation-filters="sRGB">
      <feDropShadow dx="0" dy="24" stdDeviation="28" flood-color="#000000" flood-opacity="0.45"/>
    </filter>
    <filter id="soft" x="-20%" y="-20%" width="140%" height="140%" color-interpolation-filters="sRGB">
      <feGaussianBlur stdDeviation="30"/>
    </filter>
  </defs>
  <rect width="1400" height="900" fill="url(#g0)"/>
  <g opacity="0.9" filter="url(#soft)">
    <circle cx="360" cy="320" r="260" fill="#C8FA64" fill-opacity="0.18"/>
    <circle cx="1060" cy="260" r="220" fill="#0EA5E9" fill-opacity="0.18"/>
    <circle cx="980" cy="740" r="280" fill="#22C55E" fill-opacity="0.10"/>
  </g>
  <rect x="190" y="140" width="1020" height="620" rx="28" fill="url(#g1)" stroke="#334155" stroke-opacity="0.8"/>
  <g filter="url(#shadow)">
    <rect x="420" y="210" width="560" height="520" rx="24" fill="#0B1220" stroke="#1F2937"/>
    <rect x="470" y="250" width="90" height="90" rx="18" fill="#111827" stroke="#1F2937"/>
    <path d="M515 285.5c0-2.2 1.8-4 4-4h18c2.2 0 4 1.8 4 4v27c0 2.2-1.8 4-4 4h-18c-2.2 0-4-1.8-4-4v-27z" fill="#C8FA64" fill-opacity="0.55"/>
    <rect x="470" y="364" width="230" height="16" rx="8" fill="#E2E8F0" fill-opacity="0.92"/>
    <rect x="470" y="388" width="190" height="12" rx="6" fill="#CBD5E1" fill-opacity="0.55"/>
    <rect x="470" y="440" width="460" height="58" rx="16" fill="#0F172A" stroke="#334155"/>
    <rect x="490" y="458" width="220" height="16" rx="8" fill="#94A3B8" fill-opacity="0.35"/>
    <rect x="470" y="516" width="460" height="58" rx="16" fill="#0F172A" stroke="#334155"/>
    <rect x="490" y="534" width="180" height="16" rx="8" fill="#94A3B8" fill-opacity="0.35"/>
    <rect x="470" y="600" width="460" height="56" rx="16" fill="#C8FA64"/>
    <rect x="540" y="618" width="320" height="20" rx="10" fill="#0B1220" fill-opacity="0.65"/>
    <rect x="470" y="674" width="200" height="14" rx="7" fill="#C8FA64" fill-opacity="0.55"/>
  </g>
  <rect x="220" y="180" width="120" height="12" rx="6" fill="#E2E8F0" fill-opacity="0.22"/>
  <rect x="220" y="206" width="160" height="10" rx="5" fill="#E2E8F0" fill-opacity="0.16"/>
  <rect x="220" y="720" width="220" height="12" rx="6" fill="#E2E8F0" fill-opacity="0.18"/>
</svg>

